<?xml version="1.0" encoding="utf-8"?>
<!-- Generator: Adobe Illustrator 21.1.0, SVG Export Plug-In . SVG Version: 6.00 Build 0)  -->
<svg version="1.1" id="Layer_1" xmlns="http://www.w3.org/2000/svg" xmlns:xlink="http://www.w3.org/1999/xlink" x="0px" y="0px"
	 viewBox="0 0 466 466" style="enable-background:new 0 0 466 466;" xml:space="preserve">
<style type="text/css">
	.st0{fill:#BC1212;}
	.st1{fill:#EEEEEE;}
	.st2{fill:none;stroke:#DD5353;stroke-width:16;}
	.st3{fill:#EEEEEE;fill-opacity:0.53;}
	.st4{fill:url(#a24qHNw3Kw_1_);}
	.st5{fill:#BC1111;}
	.st6{fill:#AA0D0D;}
	.st7{fill:url(#bmGsBAs94_1_);}
	.st8{fill:#DD5353;}
	.st9{fill:#8C1717;}
	.st10{fill:#F0BA93;}
	.st11{fill:#8E0909;}
	.st12{fill:#23B041;}
	.st13{fill:#138A2C;}
	.st14{fill:#11982D;}
	.st15{fill:#179E34;}
	.st16{fill:#2BBA49;}
	.st17{fill:#DDDDDD;}
	.st18{fill:#18A235;}
	.st19{fill:none;stroke:#DD5353;stroke-width:3;}
	.st20{fill:#AAAAAA;fill-opacity:0.57;}
	.st21{fill:#FFFFFF;}
	.st22{fill:none;stroke:#61CB78;stroke-width:9;}
</style>
<path id="c5no4q4bW" class="st0" d="M379.5,86.1c0,39.1,12.7,77.1,36.1,108.4c4.2,5.6-7.2-9.6,0,0c13.7,18.3,21.1,40.5,21.1,63.3
	c0,33,0,115.1,0,152.7c0,6.9-5.6,12.4-12.4,12.4c-35.7,0-130.3,0-165.9,0c-6.9,0-12.4-5.6-12.4-12.4c0-37.6,0-120.2,0-153.3
	c0-22.5,7.3-44.3,20.8-62.3c7.3-9.7-3.6,4.7,0.7-1c23.2-30.9,35.7-68.6,35.7-107.2c0-7.2,0-13.4,0-31.7c0-2.3,1.9-4.1,4.1-4.1
	c14.4,0,52.1,0,66.2,0c3.3,0,6,2.7,6,6C379.5,74.8,379.5,79.1,379.5,86.1z"/>
<path id="b5SiaxEEQv" class="st1" d="M370.6,23c4.9,0,8.9,4,8.9,8.9c0,3.9,0,10.2,0,15c0,2.6-2.1,4.7-4.7,4.7c-3.6,0-12.7,0-27.3,0
	c-21.6,0-35.1,0-40.5,0c-2.1,0-3.8-1.7-3.8-3.8c0-5,0-11.4,0-15.2c0-5.3,4.3-9.6,9.6-9.6C326.1,23,357.1,23,370.6,23z"/>
<path id="c2vG1tsSXW" class="st2" d="M271,405.9c0-39.4-0.9-65,0-132.9c0.9-67.9,46.8-86.8,49.2-128.5"/>
<path id="a3uakNGMw5" class="st3" d="M293.6,242.1c-5.2,0-8.5,0-9.8,0c-4.6,0-8.3,3.7-8.3,8.3c-0.2,28.6-0.7,103.5-0.9,131.4
	c0,6.5,5.2,11.8,11.7,11.9c24.4,0.2,87.3,0.8,112.1,1c5.3,0,9.7-4.3,9.7-9.6c0-28.6,0-104.7,0-133.3c0-5.3-4.3-9.7-9.7-9.7
	c-1.3,0-4.4,0-9.4,0c4.9-4.8,7.9-7.9,9.1-9.1c3.7-3.7,1.1-10-4.1-10c-23.9,0-82,0-106,0c-5,0-7.4,6-3.9,9.5
	C285.3,233.8,288.5,237,293.6,242.1z"/>
<linearGradient id="a24qHNw3Kw_1_" gradientUnits="userSpaceOnUse" x1="239.7027" y1="163.0747" x2="281.7727" y2="123.0747" gradientTransform="matrix(1 0 0 -1 0 466)">
	<stop  offset="0" style="stop-color:#BC1111;stop-opacity:0.55"/>
	<stop  offset="1" style="stop-color:#D68686"/>
</linearGradient>
<path id="a24qHNw3Kw" class="st4" d="M246.7,343h70l-70-66.8V343z"/>
<path id="bIuulxRKh" class="st5" d="M268.2,328.9C262.7,405,213.6,443,148.1,443S34,400,29.5,329.4c-3-47.1,36-72.5,117.2-76.4
	C231.4,252.9,271.9,278.2,268.2,328.9z"/>
<path id="a2C8O2y4R" class="st6" d="M436.3,413.5l-0.1,0.5l-0.1,0.5l-0.2,0.5l-0.2,0.5l-0.2,0.4l-0.2,0.4l-0.2,0.4l-0.2,0.4
	l-0.3,0.4l-0.3,0.4l-0.3,0.4l-0.3,0.4l-0.3,0.4l-0.3,0.3l-0.3,0.3l-0.4,0.3l-0.4,0.3l-0.4,0.3l-0.4,0.3l-0.4,0.3l-0.4,0.2l-0.4,0.2
	l-0.4,0.2l-0.4,0.2l-0.5,0.2l-0.5,0.2l-0.5,0.1l-0.5,0.1l-0.5,0.1l-0.5,0.1l-0.5,0.1l-0.5,0l-0.5,0l-0.5,0H258.3l-0.5,0l-0.5,0
	l-0.5,0l-0.5-0.1l-0.5-0.1l-0.5-0.1l-0.5-0.1l-0.5-0.1l-0.5-0.2l-0.5-0.2l-0.4-0.2l-0.4-0.2l-0.4-0.2l-0.4-0.2l-0.4-0.3l-0.4-0.3
	l-0.4-0.3l-0.4-0.3l-0.4-0.3l-0.3-0.3l-0.3-0.3l-0.3-0.4l-0.3-0.4l-0.3-0.4l-0.3-0.4l-0.3-0.4l-0.2-0.4l-0.2-0.4l-0.2-0.4l-0.2-0.4
	l-0.2-0.5l-0.2-0.5l-0.1-0.5l-0.1-0.5l-0.1-0.5l0-0.1h190.3l0,0.1L436.3,413.5z"/>
<path id="b2O8zNxJmI" class="st6" d="M197.4,256.8l4.8,0.9l4.6,1l4.5,1.1l4.3,1.2l4.1,1.3l3.9,1.4l3.8,1.5l3.6,1.6l3.5,1.7l3.3,1.8
	l3.1,1.9l2.9,2l2.8,2l2.6,2.1l2.5,2.2l2.3,2.3l2.1,2.4l2,2.5l1.8,2.6l1.6,2.7l1.5,2.8l1.3,2.9l1.1,3l1,3.1l0.8,3.2l0.6,3.3l0.5,3.4
	l0.3,3.5l0.1,3.6l0,3.7l-0.2,3.8l-0.5,5.6l-0.7,5.5l-0.8,5.4l-1,5.2l-1.1,5.1l-1.3,4.9l-1.4,4.8l-1.6,4.6l-1.7,4.5l-1.9,4.4l-2,4.2
	l-2.1,4.1l-2.3,3.9l-2.4,3.8l-2.5,3.6l-2.6,3.5l-2.8,3.4l-2.9,3.2l-3,3.1l-3.1,2.9l-3.2,2.8l-3.3,2.6l-3.5,2.5l-3.5,2.4l-3.6,2.2
	l-3.8,2.1l-3.9,1.9l-4,1.8l-4,1.6l-4.1,1.5l-4.2,1.3l-4.3,1.2l-4.4,1.1l-4.5,0.9l-4.5,0.8l-4.6,0.6l-1.3,0.1l1.8-1.9l2.7-3.2
	l2.6-3.4l2.5-3.6l2.5-3.8l2.4-4l2.3-4.1l2.2-4.3l2.1-4.5l2-4.7l1.9-4.9l1.8-5.1l1.7-5.2l1.6-5.4l1.4-5.6l1.3-5.8l1.2-6l1.1-6.2
	l1-6.4l0.9-6.5l0.8-6.7l0.6-6.9l0.5-7.1l0.4-7.3l0.1-4.9l0-4.7l-0.1-4.6l-0.2-4.5l-0.4-4.4l-0.5-4.2l-0.6-4.1l-0.8-4l-0.9-3.9
	l-1-3.7l-1.1-3.6l-1.3-3.5l-1.4-3.4l-1.5-3.3l-1.7-3.1l-1.8-3l-0.4-0.6l0.8,0.1L197.4,256.8z"/>
<linearGradient id="bmGsBAs94_1_" gradientUnits="userSpaceOnUse" x1="394.6527" y1="7.483" x2="315.5827" y2="87.6329" gradientTransform="matrix(1 0 0 -1 0 466)">
	<stop  offset="0" style="stop-color:#AD1C1C;stop-opacity:1.000000e-02"/>
	<stop  offset="1" style="stop-color:#6F2626;stop-opacity:0.24"/>
</linearGradient>
<path id="bmGsBAs94" class="st7" d="M436.7,410.6l0,0.5l0,0.5l-0.1,0.5l-0.1,0.5l-0.1,0.5l-0.1,0.5l-0.1,0.5l-0.1,0.5l-0.2,0.5
	l-0.2,0.5l-0.2,0.4l-0.2,0.4l-0.2,0.4l-0.2,0.4l-0.3,0.4l-0.3,0.4l-0.3,0.4l-0.3,0.4l-0.3,0.4l-0.3,0.3l-0.3,0.3l-0.4,0.3l-0.4,0.3
	l-0.4,0.3l-0.4,0.3l-0.4,0.3l-0.4,0.2l-0.4,0.2l-0.4,0.2l-0.4,0.2l-0.5,0.2l-0.5,0.2l-0.5,0.1l-0.5,0.1l-0.5,0.1l-0.5,0.1l-0.5,0.1
	l-0.5,0l-0.5,0l-0.5,0H269.7l90-90l77,77V410.6z"/>
<path id="d1mUy5VgrL" class="st5" d="M256,443c69.1,0,105.6-33.8,109.5-101.4c0.3-4.7-3.4-8.6-8.1-8.6c-42.3,0-159.2,0-201.2,0
	c-5.5,0-9.9,4.7-9.5,10.1C151.2,409.7,187.7,442.9,256,443z"/>
<path id="a4NSr5MFuC" class="st8" d="M341,343l0.3,0l0.3,0l0.2,0.1l0.2,0.1l0.2,0.1l0.2,0.1l0.2,0.1l0.2,0.1l0.2,0.1l0.2,0.1
	l0.2,0.1l0.2,0.1l0.2,0.1l0.2,0.1l0.2,0.2l0.2,0.2l0.2,0.2l0.2,0.2l0.2,0.2l0.2,0.2l0.1,0.2l0.2,0.2l0.1,0.2l0.1,0.2l0.1,0.2
	l0.1,0.2l0.1,0.2l0.1,0.2l0.1,0.2l0.1,0.2l0.1,0.2l0.1,0.2l0,0.3l0,0.2l0,0.3l0,0.3v0.3l0,0.3l-0.3,3.9l-0.4,3.8l-0.5,3.7l-0.6,3.6
	l-0.7,3.5l-0.8,3.4l-0.9,3.3l-1,3.2l-1.1,3.1l-1.2,3l-1.3,2.9l-1.4,2.8l-1.5,2.7l-1.6,2.6l-1.7,2.5l-1.8,2.4l-1.9,2.3l-2,2.2
	l-2.1,2.1l-2.2,2l-2.3,1.9l-2.4,1.8l-2.5,1.7l-2.6,1.6l-2.7,1.5l-2.8,1.4l-2.9,1.3l-3,1.2l-3.1,1.1l-3.2,1l-3.3,0.9l-3.4,0.8
	l-3.5,0.7l-3.6,0.6l-3.7,0.5l-3.8,0.4l-3.9,0.3l-4,0.2l-4.1,0.2l-4.2,0l-4.2-0.1l-4.1-0.1l-4-0.2l-3.9-0.3l-3.8-0.4l-3.7-0.5
	l-3.6-0.6l-3.5-0.7l-3.4-0.8l-3.3-0.9l-3.2-1l-3.1-1.1l-3-1.2l-2.9-1.3l-2.8-1.4l-2.7-1.5l-2.6-1.6l-2.5-1.7l-2.4-1.8l-2.3-1.9
	l-2.2-2l-2.1-2.1l-2-2.2l-1.9-2.3l-1.8-2.4l-1.7-2.4l-1.6-2.6l-1.5-2.6l-1.4-2.7l-1.3-2.8l-1.2-2.9l-1.1-3l-1-3.1l-0.9-3.2l-0.8-3.3
	l-0.7-3.4l-0.6-3.5l-0.5-3.6l-0.4-3.7l-0.3-3.8l0-0.3l0-0.3l0-0.3l0-0.3l0-0.3l0-0.3l0.1-0.3l0.1-0.3l0.1-0.3l0.1-0.3l0.1-0.3
	l0.1-0.3l0.1-0.3l0.1-0.3l0.1-0.2l0.2-0.2l0.2-0.2l0.2-0.2l0.2-0.2l0.2-0.2l0.2-0.2l0.2-0.2l0.2-0.2l0.2-0.2l0.2-0.2l0.2-0.2
	l0.2-0.1l0.3-0.1l0.3-0.1l0.3-0.1l0.3-0.1l0.3-0.1l0.3-0.1l0.3-0.1l0.3-0.1l0.3-0.1l0.3,0l0.3,0l0.3,0l0.3,0h52.8l0,0.2l-0.1,1l0,1
	l0,1l0.1,1l0.2,1l0.2,1l0.3,1l0.4,1l0.4,0.9l0.5,0.9l0.6,0.9l0.6,0.9l0.7,0.9l0.7,0.8l0.8,0.8l0.8,0.8l0.9,0.8l0.9,0.7l1,0.7l1,0.7
	l1.1,0.7l1.1,0.6l1.2,0.6l1.2,0.6l1.2,0.5l1.3,0.5l1.3,0.5l1.4,0.4l1.4,0.4l1.4,0.4l1.4,0.3l1.5,0.3l1.5,0.2l1.5,0.2l1.5,0.2
	l1.6,0.1l1.6,0.1l1.6,0l1.6,0l1.6-0.1l1.6-0.1l1.5-0.2l1.5-0.2l1.5-0.2l1.5-0.3l1.4-0.3l1.4-0.4l1.4-0.4l1.4-0.4l1.3-0.5l1.3-0.5
	l1.2-0.5l1.2-0.6l1.2-0.6l1.1-0.6l1.1-0.7l1-0.7l1-0.7l0.9-0.7l0.9-0.8l0.8-0.8l0.8-0.8l0.7-0.8l0.7-0.9l0.6-0.9l0.6-0.9l0.5-0.9
	l0.4-0.9l0.4-1l0.3-1l0.2-1l0.2-1l0.1-1l0-1l0-1l-0.1-1l0-0.2h43.9l0.3,0L341,343z"/>
<path id="a5vCrKvd2v" class="st9" d="M268.7,402.1c0,4.5-2.2,8.1-5,8.1s-5-3.6-5-8.1c0-4.5,2.2-8.1,5-8.1S268.7,397.6,268.7,402.1z"
	/>
<path id="a5dccLRra1" class="st9" d="M224.5,395.3c-3.2,3.2-7.3,4.1-9.3,2.2c-1.9-2-1-6.1,2.2-9.3s7.3-4.1,9.3-2.2
	C228.7,388,227.7,392.1,224.5,395.3z"/>
<path id="d2ECCp75ze" class="st10" d="M266.7,401.1c0,4.5-2.2,8.1-5,8.1s-5-3.6-5-8.1c0-4.5,2.2-8.1,5-8.1S266.7,396.6,266.7,401.1z
	"/>
<path id="avJTRMOp" class="st10" d="M223.5,393.3c-3.2,3.2-7.3,4.1-9.3,2.2c-1.9-2-1-6.1,2.2-9.3s7.3-4.1,9.3-2.2
	C227.7,386,226.7,390.1,223.5,393.3z"/>
<path id="df0Rq0Iey" class="st9" d="M200.4,370c-4.5,0-8.1-2.2-8.1-5s3.6-5,8.1-5c4.5,0,8.1,2.2,8.1,5S204.9,370,200.4,370z"/>
<path id="b2AA4Oibjp" class="st9" d="M321,370c-4.5,0-8.1-2.2-8.1-5s3.6-5,8.1-5c4.5,0,8.1,2.2,8.1,5S325.4,370,321,370z"/>
<path id="ghseIFxHQ" class="st10" d="M200.4,368c-4.5,0-8.1-2.2-8.1-5s3.6-5,8.1-5c4.5,0,8.1,2.2,8.1,5S204.9,368,200.4,368z"/>
<path id="a2Jh39rGzP" class="st9" d="M305.6,389.4c2.6,3.7,2.8,7.9,0.5,9.5c-2.3,1.6-6.2-0.1-8.7-3.8c-2.6-3.7-2.8-7.9-0.5-9.5
	C299.1,384,303.1,385.7,305.6,389.4z"/>
<path id="b4f0pbsTZg" class="st11" d="M160.1,253.2l5.9,0.2l5.8,0.3l5.6,0.4l5.5,0.5l5.3,0.6l5.1,0.7l5,0.8l4.8,0.9l4.6,1l4.4,1.1
	l4.3,1.2l4.1,1.3l3.9,1.4l3.8,1.5l3.6,1.6l3.5,1.7l3.3,1.8l3.1,1.9l3,2l2.8,2l2.6,2.1l2.2,2l-0.6,0.3l-1.5,0.8l-1.5,0.8l-1.5,0.7
	l-1.5,0.7l-1.5,0.7l-1.5,0.6l-1.5,0.6l-1.5,0.6l-1.5,0.5l-1.5,0.5l-1.5,0.5l-1.5,0.4l-1.4,0.4l-1.4,0.4l-1.5,0.4l-1.4,0.3l-1.4,0.3
	l-1.4,0.3l-1.4,0.2l-1.4,0.2l-1.4,0.2l-1.4,0.1l-1.4,0.1l-1.4,0.1l-1.4,0l-1.4,0l-1.4,0l-1.4,0l-0.4,0l0.5,1.2l0.5,1.3l0.5,1.3
	l0.4,1.3l0.4,1.3l0.4,1.4l0.3,1.4l0.3,1.4l0.3,1.4l0.2,1.4l0.2,1.4l0.2,1.4l0.2,1.4l0.1,1.5l0.1,1.5l0.1,1.5l0,1.5v1.5l0,1.5
	l-0.1,1.5l-0.1,1.6l-0.1,1.6l-0.1,1.6l-0.2,1.6l-0.2,1.6l-0.2,1.6l-0.3,1.6l-0.3,1.6l-0.3,1.7l-0.4,1.7l-1.7-0.2l-1.7-0.2l-1.7-0.3
	l-1.6-0.3l-1.6-0.3l-1.6-0.3l-1.6-0.4l-1.5-0.4l-1.5-0.4l-1.5-0.4l-1.5-0.5l-1.5-0.5l-1.4-0.5l-1.4-0.5l-1.4-0.5l-1.4-0.6l-1.3-0.6
	l-1.3-0.6l-1.3-0.6l-1.3-0.7l-1.3-0.7l-1.2-0.7l-1.2-0.7l-1.2-0.8l-1.2-0.8l-1.1-0.8l-1.1-0.8l-1.1-0.9l-1.1-0.9l-1.1-0.9l-1-0.9
	l-1-0.9l-1-1l-1-1l-1-1l-0.9-1l-0.9-1.1l-0.9-1.1l-0.9-1.1l-0.9-1.1l-0.8-1.1l-0.8-1.2l-0.8-1.2l-0.7-1.2l-0.7-1.2l-0.7-1.2
	l-0.6-1.2l-0.6-1.2l-0.6-1.2l-0.6-1.2l-0.5-1.3l-0.5-1.3l-0.5-1.3l-0.4-1.3l-0.4-1.3l-0.3-1l-0.3,1.1l-0.4,1.3l-0.5,1.3l-0.5,1.3
	l-0.5,1.3l-0.6,1.3l-0.6,1.3l-0.6,1.3l-0.6,1.2l-0.7,1.2l-0.7,1.2l-0.7,1.2l-0.8,1.2l-0.8,1.2l-0.8,1.2l-0.8,1.2l-0.9,1.1l-0.9,1.1
	l-0.9,1.1l-0.9,1.1l-1,1l-1,1l-1,1l-1,1l-1,1l-1.1,0.9l-1.1,0.9l-1.1,0.9l-1.1,0.9l-1.1,0.8l-1.2,0.8l-1.2,0.8l-1.2,0.8l-1.2,0.8
	l-1.2,0.7l-1.3,0.7l-1.3,0.7l-1.3,0.7l-1.3,0.6l-1.4,0.6l-1.4,0.6l-1.4,0.6l-1.4,0.5l-1.4,0.5l-1.5,0.5l-1.5,0.5l-1.5,0.5l-1.5,0.4
	l-1.6,0.4l-1.6,0.4l-1.6,0.4l-1.6,0.3l-1.6,0.3l-1.7,0.3l-1.7,0.3l-1.7,0.2l-0.3-1.7l-0.3-1.6l-0.3-1.6l-0.2-1.6l-0.2-1.6l-0.2-1.6
	l-0.1-1.6l-0.1-1.6l-0.1-1.6l-0.1-1.5l0-1.5v-1.5l0-1.5l0.1-1.5l0.1-1.5l0.1-1.5l0.1-1.5l0.2-1.4l0.2-1.4l0.2-1.4l0.3-1.4l0.3-1.4
	l0.3-1.4l0.4-1.4l0.4-1.4l0.4-1.3l0.4-1.3l0.5-1.3l0.5-1.3l0.5-1.3l0.4-1l-1.1,0.2l-1.4,0.2l-1.4,0.2l-1.4,0.2l-1.4,0.1l-1.4,0.1
	l-1.4,0.1l-1.4,0l-1.4,0l-1.4,0l-1.4-0.1l-1.4-0.1l-1.4-0.1l-1.4-0.1l-1.4-0.2l-1.4-0.2l-1.4-0.2l-1.4-0.3l-1.4-0.3l-1.4-0.3
	l-1.4-0.4l-1.4-0.4l-1.4-0.4l-1.4-0.5l-1.4-0.5l-1.5-0.5l-1.4-0.5l-1.4-0.6l-1.4-0.6l-1.5-0.6l-1.5-0.7l-1.5-0.7l-1.5-0.7l-0.3-0.1
	l1.7-1.5L52,279l2.7-2l2.9-2l3-1.9l3.2-1.8l3.3-1.7l3.5-1.6l3.6-1.5l3.8-1.5l3.9-1.4l4.1-1.3l4.3-1.2l4.4-1.1l4.6-1.1l4.8-1l4.9-0.9
	l5.1-0.8l5.2-0.7l5.4-0.6l5.5-0.6l5.7-0.5l5.9-0.4l2.5-0.1l-0.4,0.8l0.1,0l1.6-0.3l1.7-0.3l1.7-0.3l0.1,0l5.2,0L160.1,253.2z"/>
<path id="b31cI9q7UW" class="st10" d="M320.5,368c-4.5,0-8.1-2.2-8.1-5s3.6-5,8.1-5c4.5,0,8.1,2.2,8.1,5S324.9,368,320.5,368z"/>
<path id="b1Qo06Gcc0" class="st12" d="M86.3,235.3c17.8-5.1,36.3-1.7,55.3,10.2c-10.1,19.4-24.1,31.6-42,36.7
	c-17.8,5.1-36.2,2-55-9.1C54.6,253,68.5,240.3,86.3,235.3z"/>
<path id="a3ymyDbxsj" class="st10" d="M304.6,387.4c2.6,3.7,2.8,7.9,0.5,9.5c-2.3,1.6-6.2-0.1-8.7-3.8c-2.6-3.7-2.8-7.9-0.5-9.5
	C298.1,382,302.1,383.7,304.6,387.4z"/>
<path id="aWdL9wneI" class="st13" d="M149.6,256.3c0.7-4.4,2.5-11.6,5.6-21.7c3-10.1,9.1-18.3,18.2-24.5c-0.1-1-0.1-1.6-0.2-1.9
	c-0.7-7.2-7.6-12.2-14.6-10.5c-0.2,0-0.6,0.1-1.3,0.3c1.3-2.9-1.2,1.1-7.6,12c-6.4,10.9-9.6,25.6-9.6,44.2l0,0
	c1.2,3.9,6.1,5.2,9.1,2.5C149.2,256.7,149.4,256.5,149.6,256.3z"/>
<path id="cd9RiGsfA" class="st14" d="M205.1,235.3c-17.8-5.1-36.3-1.7-55.3,10.2c10.1,19.4,24.1,31.6,42,36.7
	c17.8,5.1,36.2,2,55-9.1C236.8,253,222.9,240.3,205.1,235.3z"/>
<path id="a12mzGCUc" class="st13" d="M164.2,239.9l1.7,0.4l1.6,0.5l1.6,0.5l1.6,0.5l1.6,0.5l1.5,0.6l1.5,0.6l1.5,0.6l1.5,0.6
	l1.4,0.7l1.4,0.7l1.4,0.7l1.4,0.8l1.4,0.8l1.3,0.8l1.3,0.8l1.3,0.8l1.3,0.9l1.2,0.9l1.2,0.9l1.2,1l1.2,1l1.1,1l1.1,1l1.1,1.1
	l1.1,1.1l1,1.1l1,1.1l1,1.2l1,1.2l0.9,1.2l0.9,1.2l0.9,1.3l0.9,1.3l0.8,1.3l0.8,1.3l0.8,1.3l0.7,1.3l0.7,1.4l0.7,1.4l0.6,1.4
	l0.6,1.4l0.6,1.4l0.5,1.4l0.5,1.4l0,0l-1.2,0.1l-1.4,0.1l-1.4,0.1l-1.4,0h-1.4l-1.4,0l-1.4-0.1l-1.4-0.1l-1.4-0.1l-1.3-0.2l-1.4-0.2
	l-1.4-0.2l-1.3-0.2l-1.4-0.3l-1.3-0.3l-1.3-0.3l-1.3-0.4l-1.3-0.4l-1.3-0.4l-1.3-0.4l-1.3-0.5l-1.3-0.5l-1.3-0.5l-1.2-0.6l-1.2-0.6
	l-1.2-0.6l-1.2-0.6l-1.2-0.7l-1.2-0.7l-1.2-0.7l-1.1-0.7l-1.1-0.8l-1.1-0.8l-1.1-0.8L170,271l-1.1-0.9l-1.1-0.9l-1-0.9l-1-1l-1-1
	l-1-1l-1-1l-1-1.1l-1-1.1l-0.9-1.1l-0.9-1.1l-0.9-1.2l-0.9-1.2l-0.9-1.2l-0.9-1.2l-0.9-1.3l-0.8-1.3l-0.8-1.3l-0.8-1.4l-0.8-1.4
	l-0.8-1.4l-0.8-1.4l1.4-0.9l1.4-0.9l1.4-0.8l1.4-0.8l1.4-0.8l1.4-0.7l1.4-0.7l1.4-0.6l0.2-0.1l1.2,0.3L164.2,239.9z"/>
<path id="bm5WfltX2" class="st15" d="M198.1,272.4c-10.9-15-27.4-23.8-49.8-26.2c-4,21.5-0.6,39.8,10.2,54.8
	c10.9,15,27.1,24,48.8,26.9C212.1,306,209,287.5,198.1,272.4z"/>
<path id="ccav68Vs3" class="st16" d="M100.3,272.5c10.9-15,27.4-23.8,49.8-26.2c4,21.5,0.6,39.8-10.2,54.8
	c-10.9,15-27.1,24-48.8,26.9C86.4,306,89.4,287.6,100.3,272.5z"/>
<path id="aqr6MzAvz" class="st6" d="M367.8,51.3l0.2,0l0.2,0l0.2,0l0.2,0.1l0.2,0.1l0.2,0.1l0.2,0.1l0.2,0.1l0.2,0.1l0.2,0.1
	l0.2,0.1l0.2,0.1l0.2,0.1l0.2,0.1l0.2,0.1l0.2,0.1l0.2,0.2l0.1,0.1l0.1,0.2l0.1,0.2l0.1,0.2l0.1,0.2l0.1,0.2l0.1,0.2l0.1,0.2
	l0.1,0.2l0.1,0.2l0.1,0.2l0.1,0.2l0.1,0.2l0.1,0.2l0,0.2l0.1,0.2l0,0.2l0,0.2l0,0.2l0,0.2l0,0.2v29.4l0,2.9l0.1,2.9l0.1,2.9l0.2,2.9
	l0.2,2.9l0.2,2.9l0.3,2.9l0.4,2.9l0.4,2.9l0.4,2.9l0.5,2.8l0.5,2.8l0.6,2.8l0.6,2.8l0.7,2.8l0.7,2.8l0.8,2.8l0.8,2.8l0.8,2.8
	l0.9,2.7l0.9,2.7l1,2.7l1,2.7l1.1,2.7l1.1,2.7l1.2,2.6l1.2,2.6l1.2,2.6l1.3,2.6l1.3,2.6l1.4,2.5l1.4,2.5l1.4,2.5l1.5,2.5l1.5,2.5
	l1.6,2.4l1.6,2.4l1.6,2.4l1.7,2.4l1.7,2.3l0.1,0.1l1,1.4l1,1.4l1,1.4l0.9,1.4l0.9,1.4l0.9,1.4l0.9,1.5l0.8,1.5l0.8,1.5l0.8,1.5
	l0.8,1.5l0.8,1.5l0.7,1.5l0.7,1.5l0.7,1.5l0.6,1.5l0.6,1.6l0.6,1.6l0.6,1.6l0.5,1.6l0.5,1.6l0.5,1.6l0.5,1.6l0.5,1.6l0.4,1.6
	l0.4,1.6l0.4,1.6l0.3,1.7l0.3,1.6l0.3,1.7l0.2,1.7l0.2,1.7l0.2,1.7l0.2,1.7l0.2,1.7l0.1,1.7l0.1,1.7l0.1,1.7l0,1.7l0,1.7v153.6
	l0,0.5l0,0.5l0,0.5l-0.1,0.5l-0.1,0.5l-0.1,0.5l-0.1,0.5l-0.1,0.5l-0.2,0.5l-0.2,0.4l-0.2,0.4l-0.2,0.4l-0.2,0.4l-0.2,0.4l-0.3,0.4
	l-0.3,0.4l-0.3,0.4l-0.3,0.4l-0.3,0.3l-0.3,0.3l-0.3,0.3l-0.4,0.3l-0.4,0.3l-0.4,0.3l-0.4,0.3l-0.4,0.2l-0.4,0.2l-0.4,0.2l-0.4,0.2
	l-0.4,0.2l-0.4,0.2l-0.5,0.2l-0.5,0.1l-0.5,0.1l-0.5,0.1l-0.5,0.1l-0.5,0.1l-0.5,0l-0.5,0h-0.5l-12.7-0.1l0.1-0.1l0.3-0.4l0.3-0.4
	l0.2-0.4l0.2-0.4l0.2-0.4l0.2-0.4l0.2-0.5l0.2-0.5l0.1-0.5l0.1-0.5l0.1-0.5l0.1-0.5l0.1-0.5l0-0.5l0-0.5l0-0.5v-157l0-1.7l0-1.7
	l-0.1-1.7l-0.1-1.7l-0.1-1.7l-0.1-1.7l-0.2-1.7l-0.2-1.7l-0.2-1.7l-0.3-1.7l-0.3-1.7l-0.3-1.7l-0.3-1.7l-0.4-1.6l-0.4-1.7l-0.4-1.6
	l-0.4-1.6l-0.5-1.6l-0.5-1.6l-0.5-1.6l-0.5-1.6l-0.6-1.6l-0.6-1.6l-0.6-1.6l-0.6-1.6l-0.7-1.6l-0.7-1.5l-0.7-1.5l-0.7-1.5l-0.8-1.5
	l-0.8-1.5l-0.8-1.5l-0.8-1.5l-0.9-1.5l-0.9-1.5l-0.9-1.4l-0.9-1.4l-0.9-1.4l-1-1.4l-1-1.4l-0.8-1.1l-1.7-2.4l-1.7-2.4l-1.6-2.4
	l-1.6-2.5l-1.6-2.5l-1.5-2.5l-1.5-2.5l-1.4-2.5l-1.4-2.6l-1.4-2.6l-1.3-2.6l-1.3-2.6l-1.2-2.6l-1.2-2.6l-1.1-2.7l-1.1-2.7l-1-2.7
	l-1-2.7l-1-2.7l-0.9-2.8l-0.9-2.8l-0.8-2.8l-0.8-2.8l-0.8-2.8l-0.7-2.8l-0.7-2.8l-0.6-2.8l-0.6-2.8l-0.5-2.9l-0.5-2.9l-0.4-2.9
	l-0.4-2.9l-0.4-2.9l-0.3-2.9l-0.2-2.9l-0.2-2.9l-0.2-2.9l-0.1-2.9l-0.1-2.9l0-2.9V51.3h16.9l0.2,0L367.8,51.3z"/>
<path id="f298Q0yWr3" class="st17" d="M336.7,51.6V23H348v28.6H336.7z M371,23l0.4,0l0.4,0.1l0.4,0.1l0.4,0.1l0.3,0.1l0.3,0.1
	l0.3,0.1l0.3,0.1l0.3,0.1l0.3,0.2l0.3,0.2l0.3,0.2l0.3,0.2l0.3,0.2l0.3,0.2l0.3,0.2l0.2,0.2l0.2,0.2l0.2,0.2l0.2,0.2l0.2,0.3
	l0.2,0.3l0.2,0.3l0.2,0.3l0.2,0.3l0.2,0.3l0.1,0.3l0.1,0.3l0.1,0.3l0.1,0.3l0.1,0.3l0.1,0.3l0.1,0.4l0.1,0.3l0,0.3l0,0.4l0,0.4
	l0,0.4v15.4v0.2l0,0.2l0,0.2l0,0.2l0,0.2l0,0.2l-0.1,0.2l0,0.2l0,0.2l-0.1,0.1l-0.1,0.2l-0.1,0.1l-0.1,0.2l-0.1,0.1l-0.1,0.1
	l-0.1,0.1l-0.1,0.1l-0.1,0.1l-0.1,0.1l-0.1,0.1l-0.1,0.1l-0.1,0.1l-0.1,0.1l-0.1,0.1l-0.1,0.1l-0.1,0.1l-0.1,0.1l-0.1,0.1l-0.2,0.1
	l-0.1,0.1l-0.2,0.1l-0.2,0l-0.2,0.1l-0.2,0.1l-0.2,0l-0.2,0l-0.2,0l-0.2,0l-0.2,0h-0.2h-18.2V23h13.6l0.4,0L371,23z"/>
<path id="aJ8mvUTrV" class="st13" d="M150.3,246.1l1.6,0.3l1.6,0.3l1.6,0.3l1.6,0.4l1.6,0.4l1.5,0.4l0.4,0.1l0.1,0.9l0.3,2l0.2,2
	l0.2,2l0.2,2l0.1,1.9l0.1,1.9l0.1,1.9l0,1.9l0,1.9l-0.1,1.9l-0.1,1.8l-0.1,1.8l-0.2,1.8l-0.2,1.8l-0.2,1.8l-0.3,1.8l-0.3,1.7
	l-0.3,1.7l-0.4,1.7l-0.4,1.7l-0.5,1.7l-0.5,1.7l-0.5,1.6l-0.6,1.6l-0.6,1.6l-0.6,1.6l-0.1,0.1l-0.2-0.3l-0.7-1.2l-0.7-1.2l-0.7-1.2
	l-0.6-1.2l-0.6-1.2l-0.6-1.2l-0.6-1.3l-0.5-1.3l-0.5-1.3l-0.5-1.3l-0.4-1.3l-0.4-1.3l-0.4-1.3l-0.4-1.4l-0.3-1.4l-0.3-1.4l-0.3-1.4
	l-0.2-1.4l-0.2-1.4l-0.2-1.4l-0.2-1.4l-0.1-1.4l-0.1-1.5l-0.1-1.5l-0.1-1.5l0-1.5v-1.5l0-1.5l0-1.5l0.1-1.5l0.1-1.5l0.1-1.6l0.2-1.6
	l0.2-1.6l0.2-1.6l0.2-1.6l1.7,0.2L150.3,246.1z"/>
<path id="b1cTW233oi" class="st6" d="M377.3,51.7c1.1,0,2.1,0.9,2.1,2.1c0,0.6,0,0.1,0,0.6c0,1.1-0.9,2.1-2.1,2.1
	c-14.9,0-57.3,0-72.2,0c-1.2,0-2.1-0.9-2.1-2.1c0-0.6,0-0.1,0-0.6c0-1.1,0.9-2.1,2.1-2.1C320,51.7,362.5,51.7,377.3,51.7z"/>
<path id="baT0QcrOk" class="st8" d="M76.5,324.7c-1.4,14.5-10.8,25.6-20.9,24.6c-10.2-1-17.4-13.5-16-28.1
	c1.4-14.5,10.8-25.6,20.9-24.6C70.7,297.6,77.9,310.2,76.5,324.7z"/>
<path id="hbO4SS8Z2V" class="st18" d="M152,249.5l0.2,1.6l0.2,1.6l0.2,1.6l0.2,1.5l0.1,1.5l0.1,1.5l0.1,1.5l0,1.5v1.5l0,1.5
	l-0.1,1.5l-0.1,1.4l-0.1,1.4l-0.1,1.4l-0.2,1.4l-0.2,1.4l-0.2,1.4l-0.2,1.4l-0.3,1.4l-0.3,1.3l-0.3,1.3l-0.4,1.3l-0.4,1.3l-0.4,1.3
	l-0.4,1.3l-0.5,1.3l-0.5,1.3l-0.5,1.3l-0.6,1.2l-0.6,1.2l-0.6,1.2l-0.6,1.2l-0.7,1.2l-0.7,1.2l-0.7,1.2l-0.8,1.2l-0.8,1.1l-0.8,1.1
	l-0.8,1.1l-0.8,1.1l-0.9,1.1l-0.9,1l-0.9,1l-0.9,1l-0.9,1l-1,1l-1,0.9l-1,0.9l-1,0.9L130,313l-1.1,0.8l-1.1,0.8l-1.1,0.8l-1.1,0.8
	l-1.1,0.8l-1.2,0.7l-1.2,0.7l-1.2,0.7l-1.2,0.7l-1.2,0.6l-1.3,0.6l-1.3,0.6l-1.3,0.6l-1.3,0.5l-1.3,0.5l-1.4,0.5l-1.4,0.5l-1.4,0.5
	l-1.4,0.4l-1.4,0.4l-0.3,0.1l-0.3-1.3l-0.4-1.9l-0.3-1.9l-0.3-1.9l-0.3-1.8l-0.2-1.8l-0.2-1.8l-0.1-1.8l-0.1-1.8l-0.1-1.7l0-1.7
	v-1.7l0-1.7l0.1-1.7l0.1-1.6l0.2-1.6l0.2-1.6l0.2-1.6l0.3-1.6l0.3-1.6l0.3-1.5l0.4-1.5l0.4-1.5l0.4-1.5l0.5-1.5l0.5-1.5l0.6-1.4
	l0.6-1.4l0.6-1.4l0.7-1.4l0.7-1.4l0.8-1.3l0.8-1.3l0.8-1.3l0.9-1.3l0.9-1.3l0.9-1.2l1-1.2l1-1.2l1-1.2l1.1-1.1l1.1-1.1l1.1-1.1
	l1.1-1l1.2-1l1.2-1l1.2-1l1.2-0.9l1.3-0.9l1.3-0.9l1.3-0.8l1.4-0.8l1.4-0.8l1.4-0.8l1.5-0.7l1.5-0.7l1.5-0.7l1.5-0.6l1-0.4l0.3-0.1
	l1.6-0.3l1.6-0.3l1.6-0.3l1.6-0.2l1.6-0.2l1.7-0.2l0.3,1.6L152,249.5z"/>
<path id="a23W7LbmWr" class="st19" d="M154.7,381.1c-2.7-8.2-4.6-15.9-5.7-23.1c-0.7-4.5-1.2-9.7-1.6-15.6c-0.4-5.1,3.7-9.4,8.7-9.4
	c16,0,56,0,119.9,0"/>
<path id="c423gCkNso" class="st19" d="M161.7,398l-3-7.2"/>
<path id="hiIzRWMuE" class="st18" d="M156.8,196.1L156.8,196.1l-0.1,0.2l-0.1,0.2l-0.1,0.2l-0.1,0.3l1.4-0.4l0.7-0.2l0.7-0.1
	l0.7-0.1l0.7,0h0.7l0.6,0l0.7,0.1l0.6,0.1l0.6,0.1l0.6,0.2l0.6,0.2l0.6,0.2l0.6,0.3l0.6,0.3l0.6,0.3l0.5,0.3l0.5,0.4l0.5,0.4
	l0.5,0.4l0.4,0.4l0.4,0.5l0.4,0.5l0.4,0.5l0.4,0.5l0.3,0.6l0.3,0.6l0.3,0.6l0.2,0.6l0.2,0.6l0.1,0.2v0l-0.5-0.4l-0.5-0.4l-0.5-0.4
	l-0.6-0.3l-0.6-0.3l-0.6-0.3l-0.6-0.2l-0.6-0.2l-0.7-0.2l-0.7-0.1l-0.7-0.1l-0.7-0.1l-0.7,0l-0.7,0l-0.7,0.1l-0.7,0.1l-0.7,0.1
	l-1.3,0.3l0.1-0.3l0.1-0.2l0.1-0.2l0-0.1l0-0.1l0,0l0,0L161,202l-0.1,0.1l-0.1,0.1l-0.1,0.2l-0.2,0.2l-0.2,0.3l-0.2,0.3l-0.2,0.4
	l-0.3,0.4l-0.3,0.5l-0.3,0.5l-0.3,0.6l-0.4,0.6l-0.4,0.7l-0.4,0.7l-0.4,0.8l-0.5,0.8L156,210l-0.5,0.9l-0.5,0.9l-0.6,1l-0.6,1
	l-0.6,1.1l-0.6,1.1l-0.6,1.1l-0.6,1.2l-0.6,1.2l-0.6,1.2l-0.5,1.2l-0.5,1.3l-0.5,1.3l-0.5,1.3l-0.4,1.3l-0.4,1.4l-0.4,1.4l-0.4,1.4
	l-0.3,1.4l-0.3,1.5l-0.3,1.5l-0.3,1.5l-0.3,1.5l-0.2,1.6l-0.2,1.6l-0.2,1.6l-0.2,1.6l-0.2,1.7l-0.1,1.7l-0.1,1.7l-0.1,1.8l-0.1,1.8
	l-0.1,1.8l0,1.8l0,1.8l0.1,0.4l0.2,0.4l0.2,0.3l0.2,0.3l0.2,0.3l0.2,0.3l0.2,0.3l0.3,0.2l0.3,0.2l0.3,0.2l0.3,0.2l0.3,0.2l0.3,0.1
	l0.3,0.1l0.3,0.1l-0.3,0.2l-0.3,0.2l-0.3,0.2l-0.3,0.2l-0.3,0.1l-0.3,0.1l-0.3,0.1l-0.3,0.1l-0.3,0l-0.3,0l-0.3,0l-0.3,0l-0.3,0
	l-0.3,0l-0.3-0.1l-0.3-0.1l-0.3-0.1l-0.3-0.1l-0.3-0.1l-0.3-0.2l-0.3-0.2l-0.3-0.2l-0.3-0.2l-0.2-0.2l-0.2-0.2l-0.2-0.3l-0.2-0.3
	l-0.2-0.3l-0.2-0.3l-0.2-0.3l-0.1-0.3l-0.1-0.4l-0.1-0.4l0-1.9l0-1.8l0-1.8l0.1-1.8l0.1-1.8l0.1-1.8l0.1-1.7l0.1-1.7l0.2-1.7
	l0.2-1.7l0.2-1.6l0.2-1.6l0.2-1.6l0.2-1.6l0.3-1.5l0.3-1.5l0.3-1.5l0.3-1.5l0.3-1.4l0.4-1.4l0.4-1.4l0.4-1.4l0.4-1.4l0.4-1.3
	l0.5-1.3l0.5-1.3l0.5-1.2l0.5-1.2l0.5-1.2l0.5-1.2l0.6-1.2l0.6-1.1l0.6-1.1l0.6-1.1l0.6-1l0.6-1l0.5-1l0.5-0.9l0.5-0.9l0.5-0.8
	l0.5-0.8l0.4-0.7l0.4-0.7l0.4-0.7l0.4-0.6l0.3-0.6l0.3-0.5l0.3-0.5l0.3-0.5l0.2-0.4l0.2-0.4l0.2-0.3l0.2-0.3l0.1-0.2l0.1-0.2
	l0.1-0.2l0.1-0.1L156.8,196.1L156.8,196.1L156.8,196.1L156.8,196.1z"/>
<path id="a2FikmTA73" class="st20" d="M377.1,46.9c1.1,0,2.1,0.9,2.1,2.1c0,0.6,0,0.1,0,0.6c0,1.1-0.9,2.1-2.1,2.1
	c-14.9,0-57.3,0-72.2,0c-1.2,0-2.1-0.9-2.1-2.1c0-0.6,0-0.1,0-0.6c0-1.1,0.9-2.1,2.1-2.1C319.8,46.9,362.2,46.9,377.1,46.9z"/>
<path id="aqWYzRlJZ" class="st21" d="M319.4,28c1.6,0,2.8,1.3,2.8,2.8c0,2.6,0,7.4,0,10c0,1.6-1.3,2.8-2.8,2.8c-1.2,0-1.8,0-3,0
	c-1.6,0-2.8-1.3-2.8-2.8c0-2.6,0-7.4,0-10c0-1.6,1.3-2.8,2.8-2.8C317.6,28,318.2,28,319.4,28z"/>
<path id="gKKzri1WS" class="st8" d="M76.7,370.8C76.1,377,70.4,381.6,64,381c-6.4-0.6-11.1-6.1-10.5-12.3
	c0.6-6.2,6.2-10.8,12.6-10.2C72.5,359.1,77.2,364.6,76.7,370.8z"/>
<path id="a1Im2noUZ3" class="st22" d="M123.3,247.2c-15-3.7-28.1-3.8-39.3-0.5c-11.2,3.3-19.4,11-24.7,23"/>
<path id="dwbRqSOnY" class="st8" d="M328.2,145c0,4.4-3.6,8-8,8s-8-3.6-8-8s3.6-8,8-8S328.2,140.6,328.2,145z"/>
<path id="c1oq4FK30m" class="st8" d="M322.4,65.7c3.7,0,6.7,3,6.7,6.7c0,9.6,0,31.6,0,41.2c0,3.7-3,6.7-6.7,6.7c-1.3,0,1.3,0,0,0
	c-3.7,0-6.7-3-6.7-6.7c0-9.6,0-31.6,0-41.2C315.7,68.7,318.7,65.7,322.4,65.7C323.7,65.7,321,65.7,322.4,65.7z"/>
</svg>
