<?xml version="1.0" ?><!DOCTYPE svg  PUBLIC '-//W3C//DTD SVG 1.1//EN'  'http://www.w3.org/Graphics/SVG/1.1/DTD/svg11.dtd'><svg enable-background="new 0 0 695.7 695.7" id="Capa_1" version="1.1" viewBox="0 0 695.7 695.7" xml:space="preserve" xmlns="http://www.w3.org/2000/svg" xmlns:xlink="http://www.w3.org/1999/xlink"><g><g><path d="M434.4,278.1c-3.7,3.7-17.7,12.8-20.7,9.7c-3-3,6.1-17.1,9.7-20.7c3.7-3.7,9.1-4.2,12.1-1.1     C438.5,269.1,438,274.5,434.4,278.1z" fill="#1D1D1B"/><path d="M461.1,358.1c-5.2,0-21.6-3.5-21.6-7.8s16.4-7.8,21.6-7.8c5.2,0,9.4,3.5,9.4,7.8S466.2,358.1,461.1,358.1     z" fill="#1D1D1B"/><path d="M450.6,460c-3.7-3.7-12.8-17.7-9.7-20.7c3-3,17.1,6.1,20.7,9.7c3.7,3.7,4.2,9.1,1.1,12.1     C459.7,464.1,454.3,463.6,450.6,460z" fill="#1D1D1B"/><path d="M347.9,605.4c-142,0-257.5-115.5-257.5-257.5S205.9,90.4,347.9,90.4s257.5,115.5,257.5,257.5     S489.8,605.4,347.9,605.4z" fill="#E8CB00"/><g><path d="M347.9,584.4c-130.4,0-236.6-106.1-236.6-236.6s106.1-236.6,236.6-236.6s236.6,106.1,236.6,236.6      S478.3,584.4,347.9,584.4z" fill="#99C21C"/><path d="M347.9,121.9c124.6,0,226,101.4,226,226c0,124.6-101.4,226-226,226s-226-101.4-226-226      C121.9,223.3,223.3,121.9,347.9,121.9 M347.9,100.7c-136.5,0-247.2,110.7-247.2,247.2S211.4,595,347.9,595S595,484.4,595,347.9      S484.4,100.7,347.9,100.7L347.9,100.7z" fill="#85B227"/></g><path d="M414.7,536.3c-3.6,0-7.1-1.6-9.4-4.6c-12.7-16.5-23.7-34.1-32.6-49.9c-3.8,12.2-8.1,23.2-13,33.3     c-2,4.1-6.1,6.7-10.7,6.7l0,0c-4.6,0-8.7-2.6-10.7-6.7c-6.2-12.8-11.4-26.8-15.9-42.9c-8.7,12.7-17.1,23.4-25.8,32.9     c-2.3,2.5-5.5,3.9-8.8,3.9c-1.6,0-3.2-0.3-4.7-1c-4.6-2-7.5-6.7-7.2-11.7c0.7-9.7,1.9-19.9,3.9-30.9     c-19.8,12.6-38,21.9-55.9,28.8c-1.4,0.5-2.8,0.8-4.2,0.8c-3.1,0-6.1-1.2-8.4-3.5c-3.3-3.3-4.4-8.3-2.7-12.6     c6.1-15.9,14.1-31.9,24.7-49.3c-18.5,4.6-35.1,7.6-50.7,9.2c-0.4,0-0.8,0.1-1.2,0.1c-4.7,0-9-2.8-10.9-7.1     c-2.1-4.7-0.8-10.3,3.1-13.7c15.1-13.2,31.3-24.6,46.5-34.3c-22.4-5.1-41.5-11.2-58.8-18.9c-4.3-1.9-7-6.2-7-10.8s2.8-8.9,7-10.8     c18-8.1,38.1-14.4,61.9-19.6c-4.1-3.2-7.9-6.3-11.5-9.5c-3.7-3.3-5-8.5-3.2-13.1c1.7-4.6,6.1-7.7,11.1-7.7l0.6,0     c7.4,0,15.1,0.4,23.4,1.2c-15.7-23.3-27-44.5-35-65.4c-1.7-4.4-0.6-9.3,2.7-12.6c2.3-2.3,5.3-3.5,8.4-3.5c1.4,0,2.9,0.3,4.2,0.8     c18.1,6.9,36.5,16.4,56.5,29.2c-4.8-21.6-7.8-40.6-9.2-58.5c-0.4-5.2,2.7-10.1,7.6-12c1.4-0.5,2.8-0.8,4.3-0.8     c3.6,0,7.1,1.6,9.4,4.6c10.4,13.5,19.6,27.7,27.5,41.2c4.9-19.5,10.8-36.2,18.1-51.3c2-4.1,6.1-6.7,10.7-6.7l0,0     c4.6,0,8.7,2.6,10.7,6.7c8.8,18.4,15.7,39.1,21.1,63.8c6.4-8.6,12.6-16.3,18.9-23.2c2.3-2.5,5.5-3.9,8.8-3.9c1.6,0,3.2,0.3,4.7,1     c4.6,2,7.5,6.7,7.2,11.7c-0.6,8.8-1.7,17.9-3.3,27.7c20.3-13,38.8-22.6,57-29.6c1.4-0.5,2.8-0.8,4.3-0.8c3.1,0,6.1,1.2,8.4,3.5     c3.3,3.3,4.4,8.3,2.7,12.6c-6.7,17.5-15.8,35.3-28.1,54.7c11.7-2.4,22.2-4.1,32.6-5.2c0.4,0,0.8-0.1,1.2-0.1     c4.7,0,9,2.8,10.9,7.1c2.1,4.7,0.8,10.3-3.1,13.7c-9.1,7.9-19.1,15.6-30.8,23.7c22.7,4.8,42.2,10.7,59.7,18l0.8,0.4     c6.9,3.1,9,9,8.7,13.5c-0.8,10.9-11.8,15-36.6,21.7c-1.4,0.4-2.5,0.7-3.2,0.9c-7.8,2.3-15.9,4.4-24.4,6.3     c5.7,4.2,10.8,8.3,15.6,12.5c3.7,3.3,5,8.5,3.2,13.1c-1.7,4.6-6.2,7.7-11.1,7.7c-9.2,0-18.8-0.6-29.2-1.8     c15.1,22.7,26.1,43.4,33.9,63.6c1.7,4.4,0.6,9.3-2.7,12.6c-2.3,2.3-5.3,3.5-8.4,3.5c-1.4,0-2.9-0.3-4.3-0.8     c-18.1-6.9-36.5-16.5-56.6-29.3c4.9,21.7,7.8,40.5,9.2,58.6c0.4,5.2-2.7,10.1-7.6,12C417.6,536,416.2,536.3,414.7,536.3z" fill="#85B227"/><g><path d="M347.9,413c-35.9,0-65.2-29.2-65.2-65.2s29.2-65.2,65.2-65.2s65.2,29.2,65.2,65.2S383.8,413,347.9,413z" fill="#F2E400"/><path d="M347.9,295.9c28.6,0,51.9,23.3,51.9,51.9c0,28.6-23.3,51.9-51.9,51.9s-51.9-23.3-51.9-51.9      C295.9,319.2,319.2,295.9,347.9,295.9 M347.9,269.4c-43.3,0-78.4,35.1-78.4,78.4s35.1,78.4,78.4,78.4s78.4-35.1,78.4-78.4      S391.2,269.4,347.9,269.4L347.9,269.4z" fill="#DDDB00"/></g><path d="M359,240.5c0,5.2-3.5,21.6-7.8,21.6s-7.8-16.4-7.8-21.6s3.5-9.4,7.8-9.4S359,235.3,359,240.5z" fill="#1D1D1B"/><path d="M343.4,460.2c0-5.2,3.5-21.6,7.8-21.6s7.8,16.4,7.8,21.6c0,5.2-3.5,9.4-7.8,9.4S343.4,465.3,343.4,460.2z     " fill="#1D1D1B"/><path d="M449.6,399.8c-4.8-2-18.6-11.5-16.9-15.5c1.7-4,18.1-0.9,22.9,1.1c4.8,2,7.3,6.8,5.6,10.8     C459.6,400.2,454.4,401.8,449.6,399.8z" fill="#1D1D1B"/><path d="M446.6,271.3c-3.7,3.7-17.7,12.8-20.7,9.7c-3-3,6.1-17.1,9.7-20.7c3.7-3.7,9.1-4.2,12.1-1.1     C450.8,262.2,450.3,267.6,446.6,271.3z" fill="#1D1D1B"/><path d="M268,422.5c3.7-3.7,17.7-12.8,20.7-9.7c3,3-6.1,17.1-9.7,20.7c-3.7,3.7-9.1,4.2-12.1,1.1     C263.9,431.6,264.4,426.1,268,422.5z" fill="#1D1D1B"/><path d="M268,422.5c3.7-3.7,17.7-12.8,20.7-9.7c3,3-6.1,17.1-9.7,20.7c-3.7,3.7-9.1,4.2-12.1,1.1     C263.9,431.6,264.4,426.1,268,422.5z" fill="#1D1D1B"/><path d="M241.3,342.5c5.2,0,21.6,3.5,21.6,7.8s-16.4,7.8-21.6,7.8c-5.2,0-9.4-3.5-9.4-7.8     S236.2,342.5,241.3,342.5z" fill="#1D1D1B"/><path d="M260.3,248.1c3.7,3.7,12.8,17.7,9.7,20.7c-3,3-17.1-6.1-20.7-9.7c-3.7-3.7-4.2-9.1-1.1-12.1     S256.7,244.4,260.3,248.1z" fill="#1D1D1B"/></g></g></svg>